<?xml version="1.0" encoding="utf-8"?>
<!-- Generator: Adobe Illustrator 24.3.0, SVG Export Plug-In . SVG Version: 6.00 Build 0)  -->
<svg version="1.1" id="Layer_1" focusable="false" xmlns="http://www.w3.org/2000/svg" xmlns:xlink="http://www.w3.org/1999/xlink"
	 x="0px" y="0px" viewBox="0 0 400 400" style="enable-background:new 0 0 400 400;" xml:space="preserve">
<style type="text/css">
	.st0{fill:#FFFFFF;}
	.st1{fill:#8A8A8A;}
</style>
<rect class="st0" width="400" height="400"/>
<path class="st1" d="M400,400c-133.3,0-266.7,0-400,0C0,266.7,0,133.3,0,0c133.3,0,266.7,0,400,0C400,133.3,400,266.7,400,400z
	 M67.6,300.5c12.1-9.7,23.7-19,35.6-28.6c8.8,14.2,17.3,28,26,42.1c9.2-8.6,18.1-16.9,27.3-25.6c14.7,23.8,29,47,43.7,70.8
	c14.8-24,29.1-47.2,43.6-70.7c9.3,8.7,18.1,16.9,27.3,25.5c8.9-14.3,17.4-28.1,26-42.1c67.6,54.6,17.9,26.2,12-56.4
	c-3.8-52.6,5.2-80.7-15.7-115.7c-16.8,20.3-18.5,19.7-15.3,26.6c9.1,19.9,0.5,39.8-20.3,46.9c-5.1,1.7-10.6,2.4-16.2,3.6
	c1.7,18.7-5.5,11.4,35.5,35c-44.4,25.1-44.7,17.7-76.9,125.3c-3.1-8-12.2-38.4-22.4-68.8c-13.3-39.9-35.2-45.2-54.8-56.5
	c40.3-23.3,34.2-15.7,35.4-35.7c-34.5-1.9-47-27-36.1-50.8c2.7-5.9,1.8-5.1-15.7-25.5c-13,23.1-14.4,35.1-14.3,79.8
	C92.7,247.5,79.5,271,67.6,300.5z M98.1,59.5c13.6,34.1,49.8,62.4,81.8,79.7c5.2,2.8,15.9-12.6,35.5-0.6c2.6,1.6,4.6,1.5,6.8,0
	c12.2-8.1,60-34.3,78.4-74.5c4-8.8,3.3-4.3-16.1,7.8c-13.2,8.3-21.6-28.6-80.1-30.8c-29.5-1.1-55.7,8.4-77.3,28.8
	C119.3,77.3,115.2,71.8,98.1,59.5z M242.3,211.6c-14.2-8.2-17.1-8.5-17-14.9c0.2-16.3-0.8-31.9-15.2-42.2
	c-13.2-9.5-28.6,4.3-31.1,15.1c-8.4,37.2,4.5,27.3-20.7,42c26.3,15.3,33.2,42,42,68.8C209,253.5,215.9,226.8,242.3,211.6z
	 M262.3,133.3c-11.5,7.3-22.7,14.3-33.9,21.3C245.5,164.8,271.9,154.6,262.3,133.3z M171.8,154.6c-11.1-7.1-22.3-14.1-33.5-21.2
	C127.7,152.4,154.2,165.9,171.8,154.6z"/>
</svg>
