<?xml version="1.0" encoding="utf-8"?>
<!-- Generator: Adobe Illustrator 24.3.0, SVG Export Plug-In . SVG Version: 6.00 Build 0)  -->
<svg version="1.1" id="Layer_1" xmlns="http://www.w3.org/2000/svg" xmlns:xlink="http://www.w3.org/1999/xlink" x="0px" y="0px"
	 viewBox="0 0 128 128" style="enable-background:new 0 0 128 128;" xml:space="preserve">
<style type="text/css">
	.st0{fill:#010101;}
	.st1{fill:#FFE303;}
	.st2{fill:#ED1C24;}
</style>
<path class="st0" d="M9.3,6.4C4.1,6.4-6.8,12.5,6,26c2.6,2.8-1.1-2.8,8.6,65.8C16.9,108.5,18,122,18,122c0,2.1-2.3,4.3-4.1,5.7
	c130.7,0,89.7,1.8,89.7-3.9c0-0.4,5.3-46.6,16.5-96.4c1.9-8.2,7.9-4.6,7.9-14.9c0-4.6-4.9-7.5-9.8-7.5c-13.5,0-5.6,16.4-5.6,16.7
	c0,4.6-21.4,28.1-23.7,30.2c-1.1-2.5-16.9-28.5-16.9-32.4c0,0,5.3-6,5.3-11.7C77.3,0.4,66.8,0,65.7,0c-12.4,0-6,19.6-6,19.6
	c0,3.9-21,32.4-22.5,34.2c-17.3-21-21.4-28.1-21.4-31.7C15.7,22.1,25.5,6.4,9.3,6.4z"/>
<path class="st1" d="M13.5,35.6c2.3,0,16.5,25.6,24,25.6c6.4,0,10.1-14.9,28.2-37c30,46.6,9.4,48.4,46.9,9.3
	c-16.1,85.8-13.5,90-16.5,90H24C13.1,36.3,12.7,35.6,13.5,35.6z M114.5,13.2c0-5.7,9.4-5,9.4,0C123.9,18.5,114.5,19.6,114.5,13.2z
	 M72.1,9.6c0,7.1-8.3,7.1-8.3,0C63.8,3.9,72.1,3.9,72.1,9.6z M4.8,16c0-6,8.6-6,8.6-1.8C13.5,21.7,4.8,22.8,4.8,16z"/>
<path class="st0" d="M64.2,44.1c9.8,0,11.6,31-0.8,31C51.4,74.7,52.2,44.1,64.2,44.1z"/>
<path class="st2" d="M63.8,47.7l-6,11.7l6,11.4l6-11.4L63.8,47.7z"/>
</svg>
