<svg xmlns="http://www.w3.org/2000/svg" xml:space="preserve" id="Layer_1" x="0" y="0" style="enable-background:new 0 0 180 36" version="1.1" viewBox="0 0 180 36"><style>.st0{fill:#ffe313}</style><path d="M8.1 1.7c-1.4 0-4.3 1.7-.9 5.5.7.8-.3-.8 2.3 18.5.6 4.7.9 8.5.9 8.5 0 .6-.6 1.2-1.1 1.6 34.8 0 23.9.5 23.9-1.1 0-.1 1.4-13.1 4.4-27.1.5-2.3 2.1-1.3 2.1-4.2 0-1.3-1.3-2.1-2.6-2.1-3.6 0-1.5 4.6-1.5 4.7 0 1.3-5.7 7.9-6.3 8.5-.3-.7-4.5-8-4.5-9.1 0 0 1.4-1.7 1.4-3.3 0-2.1-2.8-2.2-3.1-2.2-3.3 0-1.6 5.5-1.6 5.5 0 1.1-5.6 9.1-6 9.6-4.6-5.9-5.7-7.9-5.7-8.9 0 0 2.6-4.4-1.7-4.4z"/><path d="M9.2 9.9c.6 0 4.4 7.2 6.4 7.2 1.7 0 2.7-4.2 7.5-10.4 8 13.1 2.5 13.6 12.5 2.6-4.3 24.1-3.6 25.3-4.4 25.3H12C9.1 10.1 9 9.9 9.2 9.9zM36.1 3.6c0-1.6 2.5-1.4 2.5 0 0 1.5-2.5 1.8-2.5 0zM24.8 2.6c0 2-2.2 2-2.2 0 0-1.6 2.2-1.6 2.2 0zM6.9 4.4c0-1.7 2.3-1.7 2.3-.5 0 2.1-2.3 2.4-2.3.5z" class="st0"/><path d="M22.7 12.3c2.6 0 3.1 8.7-.2 8.7-3.2-.1-3-8.7.2-8.7z"/><path d="M22.6 13.3 21 16.6l1.6 3.2 1.6-3.2z" style="fill:#f90618"/><path d="M70.6 4.8c2.6 0 4.6.7 6.2 2.2 1.6 1.5 2.4 3.4 2.4 5.7 0 2.4-.8 4.3-2.4 5.7-1.6 1.5-3.7 2.2-6.4 2.2h-5.1V32H60V4.8h10.6zm-1.4 11.8c1.4 0 2.5-.3 3.3-1 .8-.6 1.2-1.6 1.2-2.9 0-2.5-1.6-3.8-4.8-3.8h-3.6v7.6h3.9zM101 4.8V9H88.6v7.2h11.8v4.1H88.6V28h12.6v4.1H83.4V4.8H101zM128.8 4.8V9h-9.7v23.2h-5.3V9h-9.7V4.8h24.7zM137.6 4.8l9 10.8 9-10.8h4.7v27.3H155V13h-.2l-7.9 9.6h-.7l-7.9-9.6h-.2v19.2h-5.3V4.8h4.8zM171.6 4.8v27.3h-5.3V4.8h5.3z"/></svg>