<?xml version="1.0" encoding="utf-8"?>
<!-- Generator: Adobe Illustrator 24.3.0, SVG Export Plug-In . SVG Version: 6.00 Build 0)  -->
<svg version="1.1" id="Layer_1" xmlns="http://www.w3.org/2000/svg" xmlns:xlink="http://www.w3.org/1999/xlink" x="0px" y="0px"
	 viewBox="0 0 32 32" style="enable-background:new 0 0 32 32;" xml:space="preserve">
<style type="text/css">
	.st0{fill:#13B5EC;}
	.st1{fill-rule:evenodd;clip-rule:evenodd;fill:#13B5EC;}
</style>
<g id="Layer_2_1_">
	<g id="Layer_1-2">
		<circle class="st0" cx="16" cy="16" r="16"/>
		<g>
			<path class="st1" d="M17.2,12.9l3.6-2.1V15L17.2,12.9z M20.8,21.9L16,24.7l-4.8-2.8V17l4.8,2.8l4.8-2.8L20.8,21.9z M11.2,10.8
				l3.6,2.1L11.2,15V10.8z M16.6,13.9l3.6,2.1l-3.6,2.1V13.9z M15.4,18.1L11.8,16l3.6-2.1L15.4,18.1z M20.2,9.8L16,12.2l-4.2-2.4
				L16,7.3L20.2,9.8z M10,9.4v13.1l6,3.4l6-3.4V9.4L16,6L10,9.4z"/>
		</g>
	</g>
</g>
</svg>
