<?xml version="1.0" encoding="utf-8"?>
<!-- Generator: Adobe Illustrator 24.3.0, SVG Export Plug-In . SVG Version: 6.00 Build 0)  -->
<svg version="1.1" id="Layer_1" xmlns="http://www.w3.org/2000/svg" xmlns:xlink="http://www.w3.org/1999/xlink" x="0px" y="0px"
	 viewBox="0 0 154 172" style="enable-background:new 0 0 154 172;" xml:space="preserve">
<style type="text/css">
	.st0{fill:#3D4864;}
	.st1{fill:#939B9D;}
	.st2{fill:#D0DDDF;}
	.st3{fill:#BBC8C9;}
	.st4{fill:#7BBF94;}
</style>
<path class="st0" d="M80.4,1.8c29.5,6.3,49.3,31.6,48.8,61.9c-0.2,15.7,4.4,34.7,20,32.3c4.7-0.7,9,21.9-12.3,25.2
	c-11.4,1.8-14.9,5.4-15.7,16.6c-0.7,8.7-6.6,14.5-15.3,15.4C86.4,155,94.4,165.3,82.2,169c-32.9,10-71.9-20.7-80.8-59.1
	C-1.5,97.4,1,114,0.8,60.3c0-1.5-0.8-1-0.8-4.6c2.6-5.2,3.7-33.2,36.3-49.2c6-3,12.9-4.4,19.3-6.5C77,0,69.8-0.5,80.4,1.8z
	 M57.7,8.3C32.3,9,8.7,33.4,8.1,59.1c-0.4,14.2-0.1,28.5,0,42.7c0.2,19.3,15.7,46.2,46.1,58.9c13.6,5.7,27.6,1,28.9-1.5
	c11.5-21.5,29.7-5.5,30.7-22.9c1.3-23.3,22.4-21.6,29.1-25.9c7.5-4.8-4-7.4-8.1-10.8c-20.7-16.5-8-37.4-17.7-59.8
	C109.1,21.4,88,7.7,69.5,8.2C65.5,8.3,61.6,8.2,57.7,8.3z"/>
<path class="st1" d="M0.8,96.3c0,1.1-0.5,2.1-0.8,3.2C0,45.6,1.1,43.3,0.8,96.3z"/>
<path class="st2" d="M131.9,114.1c-28.1,7.6-9,30.3-27.8,31.8c-9.4,0.8-16.5,4.8-21,13.3c-0.8,1.5-3.7,2-5.6,2.9
	c-5.6-4.8-10.9-5.3-20.2-10.3C17.3,130.4,23.9,99,23,68.8c-0.1-4,6.2,6.8,18.5,4.5c25.7-4.9,20.1-44.3-8.7-38.8
	c2.6-11.9,16.2-20.1,24.8-26.2c17.1-0.1,9.9-0.2,13.4,0.9C85.5,13.5,96.6,25.8,98.2,36c-1.6-0.5-3.1-1.1-4.7-1.5
	c-8.3-2.1-16.7,1.4-21.3,8.6c-10.6,16.9,8.1,36.8,24,28.7c15.3-7.8,9.5-22.6,12.1,15.9C109.6,106.3,121.4,109.6,131.9,114.1z"/>
<path class="st3" d="M57.7,8.3c-8.8,6.3-22.1,14.3-24.8,26.2c-15,6-18.7,19.7-9.1,33.1C23.6,68,23,68.4,23,68.8
	c0.9,30.5-5.8,61.6,34.3,83.1c10.5,5.6,14.1,5,20.2,10.3c-22.4,5.9-56.8-13.5-67.9-50.1c-2.5-8.2-1.6-48.8-1.5-53
	C8.7,33.4,32.3,9.5,57.7,8.3z"/>
<path class="st1" d="M98.2,36C96.6,25.8,85.5,13.5,71.1,9.2c-10.6-3.2,31.5-3,46,30.7c9.6,22.4-3,43.4,17.7,59.8
	c4.2,3.3,15.6,6,8.1,10.8c-3.1,2-7.3,2.5-11,3.7c-25.3-10.9-23.2-13.7-24.7-51.6C110.3,51.6,108.4,42.4,98.2,36z"/>
<path class="st0" d="M23.8,67.6c-9.7-13.4-5.9-27.1,9.1-33.1c11.9-2.3,22.5,4.1,24.7,14.8C61.2,67.5,40.9,82.1,23.8,67.6z M38.3,44
	c-14.2,1-13.1,19.2,0,19.3C38.3,56.9,38.3,50.6,38.3,44z"/>
<path class="st0" d="M107.3,62.5c-3.7,3.2-6.9,7.2-11,9.3c-15.9,8.1-34.7-11.7-24-28.7C83.2,25.7,115.1,33.9,107.3,62.5z M88.9,63.2
	c0-6.3,0-12.7,0-19C75.6,44.2,75.3,63.1,88.9,63.2z"/>
<path class="st4" d="M38.3,44c0,6.6,0,12.9,0,19.3C25.2,63.2,24.1,45,38.3,44z"/>
<path class="st3" d="M88.9,63.2c-13.6-0.1-13.3-19,0-19C88.9,50.5,88.9,56.8,88.9,63.2z"/>
</svg>
